<?xml version="1.0" encoding="iso-8859-1"?>
<!-- Generator: Adobe Illustrator 19.0.0, SVG Export Plug-In . SVG Version: 6.00 Build 0)  -->
<svg version="1.1" id="Capa_1" xmlns="http://www.w3.org/2000/svg" xmlns:xlink="http://www.w3.org/1999/xlink" x="0px" y="0px"
	 viewBox="0 0 512 512" style="enable-background:new 0 0 512 512;" xml:space="preserve">
<g>
	<g>
		<path d="M501.961,55.477c5.52-0.002,9.994-4.478,9.994-9.998V9.998c0-5.522-4.476-9.998-9.998-9.998
			c-54.386,0-90.943,36.337-114.561,66.64c-13.827-5.131-28.823-6.619-43.63-4.146c-21.11,3.523-39.987,14.756-53.154,31.629
			l-14.267,18.28c-0.031,0.04-0.062,0.08-0.092,0.12c-7.177,9.488-13.899,18.759-20.254,27.846
			c-6.589-9.42-13.278-18.619-20.258-27.846c-0.03-0.04-0.061-0.08-0.092-0.12l-14.266-18.281
			c-13.167-16.872-32.045-28.105-53.155-31.629c-14.807-2.474-29.803-0.985-43.63,4.146C100.983,36.337,64.426,0,10.04,0
			C4.518,0,0.042,4.476,0.042,9.998v35.48c0,5.52,4.474,9.996,9.994,9.998c23.845,0.01,46.661,14.88,71.441,46.654
			c-14.833,24.316-17.021,55.342-3.598,82.351l18.877,37.986c1.501,3.281,19.239,41.414,54.357,89.503
			C118.038,364.554,75.539,422.364,2.97,494.932c-2.859,2.859-3.714,7.16-2.167,10.896C2.351,509.564,5.997,512,10.041,512
			c62.706,0,123.104-15.319,179.52-45.533c22.834-12.229,45.029-26.906,66.439-43.888C330.773,481.916,413.48,512,501.959,512
			c4.043,0,7.69-2.437,9.237-6.172c1.548-3.735,0.692-8.037-2.167-10.895c-18.515-18.515-35.921-36.921-51.735-54.707
			c-3.668-4.127-9.989-4.497-14.116-0.829c-4.126,3.668-4.498,9.988-0.829,14.116c10.955,12.321,22.654,24.928,34.943,37.657
			c-73.314-4.996-142.296-32.401-205.526-81.639c15.133-13.053,29.84-27.278,44.056-42.657
			c11.802-12.767,22.518-25.499,32.176-37.82c13.196,20.703,26.138,39.463,40.14,58.203c1.964,2.628,4.971,4.014,8.018,4.014
			c2.082,0,4.181-0.648,5.977-1.99c4.423-3.305,5.33-9.57,2.025-13.994c-15.097-20.207-28.947-40.451-43.268-63.258
			c34.969-47.827,52.734-86.017,54.353-89.563l18.877-37.986c13.423-27.009,11.236-58.035-3.598-82.351
			C455.3,70.356,478.116,55.487,501.961,55.477z M20.038,36.137V20.515c38.896,4.059,67.073,31.257,86.442,55.453
			c-4.452,3.009-8.538,6.372-12.242,10.035C76.743,64.222,52.102,40.361,20.038,36.137z M98.733,181.516l-2.949-5.933
			c-11.187-22.517-8.207-48.68,6.023-67.88c0.017-0.023,0.035-0.045,0.051-0.068c4.495-6.049,10.097-11.411,16.74-15.738
			c2.227-1.451,4.511-2.732,6.833-3.882c0.196-0.087,0.388-0.186,0.579-0.287c25.394-12.283,55.593-6.9,75.188,13.593
			c-26.815,1.466-48.487,22.585-50.81,49.168h-2.802C126.024,150.489,107.38,163.199,98.733,181.516z M113.569,211.366
			c0.005-0.135,0.02-0.268,0.02-0.404v-6.48c0-18.747,15.251-33.997,33.997-33.997h12.595c5.522,0,9.998-4.476,9.998-9.998v-5.259
			c0-18.747,15.251-33.998,33.998-33.998h12.996l2.668,3.418c8.339,11.026,16.257,22.007,24.089,33.403
			c-20.888,31.346-37.805,60.636-54.335,89.261c-8.781,15.205-17.627,30.523-27.12,46.22
			C130.981,249.163,113.569,211.366,113.569,211.366z M397.259,213.718c-0.053,0.109-0.104,0.217-0.153,0.326
			c-0.315,0.695-32.212,70.282-95.968,139.255c-54.854,59.341-144.45,129.37-266.415,137.852
			c65.836-68.206,105.319-123.383,136.757-174.021c0.161-0.237,0.313-0.478,0.451-0.727c12.543-20.236,23.815-39.753,34.982-59.092
			c23.955-41.484,48.728-84.383,85.246-132.669l2.665-3.414h12.997c18.747,0,33.998,15.251,33.998,33.998v5.259
			c0,5.522,4.476,9.998,9.998,9.998h12.595c18.747,0,33.997,15.251,33.997,33.997v6.48c0,0.136,0.015,0.269,0.02,0.404
			L397.259,213.718z M416.212,175.583l-2.948,5.933c-8.647-18.318-27.289-31.028-48.853-31.028h-2.802
			c-2.324-26.583-23.994-47.701-50.81-49.168c19.6-20.497,49.81-25.877,75.207-13.583c0.183,0.096,0.366,0.19,0.553,0.274
			c2.324,1.152,4.611,2.435,6.841,3.886c6.643,4.326,12.245,9.688,16.74,15.736c0.017,0.024,0.036,0.047,0.053,0.071
			C424.42,126.905,427.401,153.067,416.212,175.583z M417.76,86.003c-3.704-3.663-7.79-7.027-12.242-10.035
			c19.369-24.196,47.546-51.393,86.441-55.453v15.622C459.896,40.361,435.255,64.223,417.76,86.003z"/>
	</g>
</g>
<g>
	<g>
		<path d="M430.907,409.391l-0.386-0.47c-3.511-4.263-9.812-4.872-14.075-1.362c-4.262,3.511-4.871,9.812-1.361,14.075l0.367,0.446
			c1.977,2.408,4.843,3.654,7.733,3.654c2.233,0,4.478-0.745,6.339-2.272C433.793,419.958,434.412,413.659,430.907,409.391z"/>
	</g>
</g>
<g>
	<g>
		<path d="M310.05,296.437c-4.3-3.464-10.595-2.786-14.059,1.516c-31.44,39.037-65.989,71.368-102.687,96.093
			c-4.58,3.086-5.791,9.299-2.706,13.879c1.932,2.867,5.087,4.413,8.302,4.413c1.922,0,3.864-0.553,5.577-1.708
			c38.361-25.846,74.389-59.535,107.087-100.134C315.029,306.195,314.351,299.901,310.05,296.437z"/>
	</g>
</g>
<g>
	<g>
		<path d="M175.665,416.978c-2.624-4.858-8.69-6.667-13.549-4.042l-0.709,0.381c-4.868,2.607-6.702,8.666-4.095,13.534
			c1.803,3.365,5.255,5.281,8.823,5.281c1.593,0,3.208-0.382,4.71-1.186l0.777-0.418
			C176.481,427.903,178.291,421.836,175.665,416.978z"/>
	</g>
</g>
<g>
</g>
<g>
</g>
<g>
</g>
<g>
</g>
<g>
</g>
<g>
</g>
<g>
</g>
<g>
</g>
<g>
</g>
<g>
</g>
<g>
</g>
<g>
</g>
<g>
</g>
<g>
</g>
<g>
</g>
</svg>
