<?xml version="1.0" encoding="iso-8859-1"?>
<!-- Generator: Adobe Illustrator 19.0.0, SVG Export Plug-In . SVG Version: 6.00 Build 0)  -->
<svg xmlns="http://www.w3.org/2000/svg" xmlns:xlink="http://www.w3.org/1999/xlink" version="1.1" id="Layer_1" x="0px" y="0px" viewBox="0 0 498.181 498.181" style="enable-background:new 0 0 498.181 498.181;" xml:space="preserve" width="512" height="512">
<g>
	<path d="M249.091,498.181c-67.97,0-125.264-14.227-165.687-41.143c-22.343-14.876-39.643-33.626-51.418-55.728   c-12.496-23.454-18.832-50.837-18.832-81.39c0-43.478,12.799-85.733,37.012-122.199c23.537-35.447,56.712-63.885,95.938-82.238   c40.14-18.765,66.074-61.072,66.074-107.783V7.5c0-4.142,3.357-7.5,7.5-7.5h58.824c4.143,0,7.5,3.358,7.5,7.5v0.2   c0,46.711,25.935,89.018,66.072,107.781c7.984,3.736,15.834,7.955,23.333,12.541c3.533,2.161,4.646,6.777,2.485,10.311   c-2.161,3.534-6.776,4.647-10.312,2.486c-7.026-4.297-14.382-8.25-21.862-11.75c-43.274-20.23-71.95-64.481-74.527-114.069h-44.203   c-2.577,49.587-31.253,93.838-74.529,114.07c-36.731,17.186-67.783,43.795-89.798,76.949   c-22.575,33.999-34.508,73.385-34.508,113.902c0,54.616,21.386,96.548,63.563,124.632c37.952,25.271,92.371,38.628,157.373,38.628   s119.421-13.357,157.373-38.628c42.178-28.084,63.563-70.016,63.563-124.632c0-61.378-27.674-119.722-75.926-160.069   c-3.177-2.657-3.6-7.387-0.942-10.564c2.657-3.178,7.387-3.6,10.565-0.942c51.669,43.206,81.303,105.743,81.303,171.576   c0,30.552-6.336,57.936-18.832,81.39c-11.775,22.102-29.075,40.852-51.418,55.728C374.354,483.954,317.06,498.181,249.091,498.181z   "/>
	<path d="M119.737,396.196c-3.315,0-6.348-2.215-7.242-5.57c-4.957-18.599-7.471-39.644-7.471-62.551   c0-70.278,23.633-135.688,63.217-174.97c2.939-2.917,7.688-2.901,10.606,0.041c2.918,2.94,2.899,7.688-0.04,10.606   c-36.809,36.527-58.783,97.956-58.783,164.322c0,21.603,2.344,41.348,6.965,58.688c1.066,4.002-1.313,8.112-5.315,9.179   C121.027,396.114,120.377,396.196,119.737,396.196z"/>
	<path d="M138.47,439.251c-2.446,0-4.844-1.195-6.283-3.395c-3.737-5.713-7.14-11.889-10.111-18.356   c-1.729-3.764-0.08-8.217,3.685-9.946c3.764-1.731,8.216-0.08,9.946,3.684c2.661,5.793,5.7,11.313,9.033,16.406   c2.268,3.466,1.296,8.115-2.17,10.382C141.303,438.854,139.879,439.251,138.47,439.251z"/>
	<path d="M359.717,439.251c-1.408,0-2.832-0.396-4.099-1.224c-3.466-2.267-4.438-6.916-2.171-10.382   c16.395-25.067,24.707-58.567,24.707-99.57c0-66.366-21.975-127.794-58.783-164.322c-2.939-2.918-2.958-7.667-0.04-10.607   c2.917-2.94,7.666-2.958,10.606-0.041c39.584,39.284,63.217,104.693,63.217,174.97c0,43.968-9.136,80.231-27.154,107.78   C364.561,438.055,362.163,439.251,359.717,439.251z"/>
</g>















</svg>
