<?xml version="1.0" encoding="iso-8859-1"?>
<!-- Generator: Adobe Illustrator 19.0.0, SVG Export Plug-In . SVG Version: 6.00 Build 0)  -->
<svg version="1.1" id="Layer_1" xmlns="http://www.w3.org/2000/svg" xmlns:xlink="http://www.w3.org/1999/xlink" x="0px" y="0px"
	 viewBox="0 0 512.001 512.001" style="enable-background:new 0 0 512.001 512.001;" xml:space="preserve">
<g>
	<g>
		<g>
			<path d="M498.361,162.023c-0.779-2.203-2.474-3.961-4.647-4.82c-7.192-2.839-14.503-5.281-21.913-7.327
				c3.257-35.1-3.715-58.991-21.724-74.833c-17.115-15.055-41.443-20.706-69.613-27.249c-11.82-2.746-24.044-5.584-36.539-9.322
				c-52.467-15.69-101.976-1.955-134.269,12.328c-0.152,0.068-0.3,0.14-0.448,0.215l-6.095,3.158
				c-3.958,2.052-5.504,6.925-3.453,10.883c2.051,3.958,6.922,5.504,10.883,3.453l5.87-3.042
				c29.81-13.149,75.252-25.768,122.887-11.526c12.977,3.88,25.45,6.778,37.511,9.58c52.013,12.083,84.295,19.585,79.116,82.621
				c-8.331-1.636-16.763-2.787-25.272-3.436c-0.126-0.01-0.252-0.016-0.378-0.026c-1.257-0.094-2.516-0.183-3.776-0.255
				c-1.441-0.084-2.882-0.153-4.321-0.207c-1.854-0.069-3.703-0.112-5.551-0.136c-0.102-0.001-0.206,0-0.308-0.001
				c-25.917-0.288-51.244,3.959-75.474,12.667c-0.121-0.203-0.25-0.399-0.371-0.602c-0.355-0.591-0.72-1.173-1.084-1.758
				c-0.425-0.684-0.85-1.369-1.288-2.045c-0.285-0.439-0.581-0.871-0.872-1.307c-0.536-0.803-1.071-1.607-1.624-2.397
				c-0.115-0.164-0.235-0.323-0.351-0.487c-4.981-7.041-10.664-13.57-17.021-19.507c3.031-1.671,6.923-3.562,11.705-5.408
				c0.244-0.075,0.479-0.172,0.715-0.27c13.36-5.054,33.385-9.655,60.523-8.203c4.454,0.238,8.256-3.176,8.494-7.63
				c0.239-4.453-3.178-8.255-7.63-8.494c-21.276-1.142-38.756,1.152-52.578,4.679l5.474-19.144c1.226-4.286-1.256-8.756-5.542-9.981
				c-4.283-1.225-8.756,1.255-9.981,5.542l-8.509,29.761c-7.122,2.989-12.429,6.019-15.978,8.324
				c-9.571-6.763-20.021-12.125-31.021-15.993c-0.16-0.057-0.321-0.113-0.481-0.169c-1.193-0.414-2.389-0.816-3.594-1.195
				c-0.198-0.062-0.397-0.118-0.595-0.18c-2.025-0.624-4.066-1.197-6.122-1.72c-0.547-0.14-1.09-0.287-1.639-0.42
				c-0.828-0.199-1.66-0.38-2.493-0.562c-0.816-0.179-1.632-0.352-2.452-0.516c-0.74-0.146-1.478-0.291-2.221-0.423
				c-1.07-0.193-2.145-0.366-3.223-0.532c-0.52-0.08-1.038-0.171-1.559-0.243c-1.593-0.224-3.194-0.415-4.801-0.579
				c-0.466-0.047-0.933-0.082-1.4-0.124c-1.223-0.111-2.45-0.207-3.68-0.281c-0.272-0.017-0.542-0.047-0.815-0.062
				c-0.582-0.354-1.163-0.695-1.744-1.043c-0.478-0.286-0.957-0.576-1.435-0.858c-0.891-0.525-1.78-1.037-2.669-1.546
				c-1.649-0.946-3.295-1.869-4.935-2.76c-0.033-0.018-0.067-0.038-0.1-0.056c-1.189-0.646-2.376-1.27-3.561-1.887
				c-0.02-0.011-0.041-0.022-0.061-0.032c-42.195-21.936-81.678-25.645-117.567-10.965C73.037,87.47,50.05,114.703,36.705,135.121
				c-2.439,3.732-1.391,8.735,2.341,11.175c3.731,2.438,8.734,1.391,11.175-2.341c23.718-36.287,74.409-87.485,157.965-49.233
				c0.059,0.027,0.119,0.056,0.179,0.084c-17.23,3.236-33.599,10.058-48.315,20.232c-0.341,0.236-0.672,0.487-1.01,0.726
				c-0.251,0.177-0.498,0.358-0.748,0.537c-0.947,0.679-1.887,1.368-2.814,2.073c-0.494,0.375-0.983,0.758-1.471,1.14
				c-0.627,0.491-1.25,0.984-1.867,1.488c-0.762,0.619-1.515,1.249-2.263,1.886c-0.286,0.244-0.572,0.489-0.856,0.736
				c-13.171,11.414-24.04,25.579-31.655,41.823c-0.127,0.269-0.253,0.538-0.377,0.807c-0.449,0.976-0.888,1.958-1.313,2.948
				c-0.105,0.245-0.222,0.485-0.326,0.732c-20.078-5.807-41.516-10.049-64.013-12.688c-0.183-0.022-0.369-0.042-0.552-0.064
				c-1.971-0.228-3.949-0.445-5.936-0.649c-0.604-0.062-1.207-0.126-1.814-0.186c-1.792-0.177-3.592-0.342-5.397-0.5
				c-1.406-0.123-2.827-0.236-4.251-0.347c-0.841-0.066-1.678-0.137-2.521-0.197c-0.037-0.003-0.072,0-0.11-0.002
				c-5.936-0.431-12.006-0.772-18.246-0.989c-3.999-0.142-7.519,2.691-8.228,6.644c-2.255,12.554-3.636,25.341-4.11,38.001
				c-0.125,3.341-0.181,6.954-0.171,11.045c0.001,0.224,0.011,0.447,0.029,0.67c2.933,34.276,11.428,85.043,35.243,132.253
				c0.062,0.123,0.127,0.244,0.196,0.364C78.76,419.2,156.328,469.901,242.963,478.914c0.278,0.028,0.556,0.043,0.835,0.043
				c0.107,0,0.212-0.002,0.319-0.006c0.292-0.012,0.586-0.019,0.878-0.025c0.321-0.009,0.638-0.024,0.958-0.036
				c6.177,0.718,12.266,1.217,18.174,1.438c3.08,0.114,6.15,0.172,9.214,0.172c49.561-0.001,96.937-15.036,137.537-43.745
				c3.64-2.575,4.506-7.612,1.931-11.253c-2.576-3.642-7.61-4.507-11.253-1.931c-40.192,28.421-87.514,42.461-136.826,40.621
				c-5.599-0.209-11.216-0.647-16.978-1.321c-0.174-0.032-0.349-0.067-0.527-0.088c-1.992-0.236-3.846-0.471-5.594-0.716
				c-4.335-7.237-8.186-14.701-11.549-22.351c-0.024-0.055-0.049-0.109-0.073-0.164c-0.329-0.752-0.648-1.509-0.969-2.265
				c-0.149-0.352-0.304-0.702-0.451-1.054c-0.251-0.603-0.492-1.209-0.737-1.814c-0.206-0.508-0.418-1.015-0.62-1.525
				c-0.203-0.514-0.397-1.032-0.596-1.548c-0.234-0.604-0.471-1.207-0.699-1.813c-0.129-0.344-0.251-0.692-0.379-1.038
				c-0.288-0.78-0.578-1.562-0.856-2.345c-0.036-0.099-0.068-0.199-0.103-0.299c-3.956-11.211-6.902-22.752-8.803-34.511
				c-0.06-0.377-0.114-0.755-0.172-1.131c-0.126-0.809-0.254-1.62-0.37-2.432c-0.1-0.7-0.189-1.4-0.282-2.101
				c-0.066-0.493-0.137-0.985-0.198-1.479c-0.09-0.728-0.17-1.457-0.253-2.186c-0.053-0.468-0.112-0.934-0.163-1.403
				c-0.123-1.145-0.234-2.293-0.336-3.441c-0.004-0.053-0.011-0.106-0.015-0.159c-0.194-2.187-0.347-4.38-0.468-6.578
				c-0.012-0.219-0.029-0.437-0.04-0.656c-0.247-4.728-0.326-9.478-0.241-14.244c0.024-1.326,0.058-2.653,0.108-3.982
				c0.074-1.975,0.183-3.947,0.315-5.916c0.032-0.476,0.073-0.949,0.108-1.425c0.117-1.573,0.248-3.143,0.401-4.71
				c0.04-0.411,0.082-0.822,0.125-1.234c0.191-1.828,0.4-3.652,0.64-5.472c0.013-0.096,0.024-0.192,0.037-0.286
				c1.921-14.401,5.403-28.543,10.342-42.147c0.152-0.415,0.302-0.831,0.458-1.245c0.484-1.308,0.991-2.608,1.503-3.905
				c0.252-0.637,0.496-1.278,0.756-1.911c0.315-0.775,0.65-1.543,0.975-2.314c31.579-74.633,106.874-125.856,192.555-122.63
				c1.564,0.058,3.13,0.139,4.698,0.236c0.265,0.016,0.53,0.037,0.794,0.054c1.441,0.095,2.883,0.2,4.325,0.326
				c0.06,0.005,0.119,0.011,0.18,0.016c9.892,0.876,19.792,2.498,29.545,4.848c0.235,0.057,0.471,0.097,0.708,0.132
				c7.617,1.864,15.131,4.174,22.513,6.933c8.545,25.5,12.363,52.053,11.353,78.992c-2.308,61.686-29.107,118.127-75.462,158.928
				c-3.347,2.945-3.672,8.047-0.727,11.394c2.945,3.346,8.048,3.672,11.394,0.727c24.096-21.208,43.378-46.549,57.31-75.317
				c14.425-29.785,22.372-61.792,23.62-95.127C512.962,220.281,508.431,190.515,498.361,162.023z M215.355,271.887
				c-0.082,0.186-0.161,0.374-0.243,0.56c-0.602,1.385-1.197,2.773-1.77,4.17c-0.341,0.829-0.667,1.666-0.999,2.502
				c-0.34,0.86-0.692,1.717-1.022,2.581c-5.996,15.67-10.214,32.233-12.435,49.448c-0.034,0.264-0.068,0.529-0.101,0.792
				c-0.216,1.732-0.413,3.47-0.589,5.215c-0.045,0.44-0.092,0.88-0.133,1.321c-0.153,1.616-0.285,3.238-0.403,4.864
				c-0.034,0.48-0.078,0.959-0.109,1.44c-0.135,2.047-0.247,4.1-0.324,6.164c-0.053,1.395-0.09,2.789-0.116,4.182
				c-6.541-2.993-12.725-6.16-18.553-9.424l-13.057-62.676c-0.91-4.366-5.182-7.162-9.55-6.257c-4.366,0.91-7.167,5.185-6.257,9.55
				l9.933,47.679c-33.37-22.669-50.591-45.711-50.959-46.209c-2.629-3.602-7.676-4.394-11.278-1.767
				c-3.604,2.625-4.396,7.676-1.771,11.28c1.433,1.966,35.109,47.427,101.893,75.642c0.129,2.058,0.281,4.112,0.468,6.161
				c0.004,0.051,0.008,0.101,0.013,0.152c0.195,2.116,0.43,4.227,0.687,6.333c0.04,0.33,0.078,0.66,0.119,0.99
				c0.255,2.015,0.54,4.025,0.853,6.029c0.059,0.38,0.119,0.76,0.181,1.14c0.324,2.014,0.672,4.023,1.052,6.024
				c0.055,0.286,0.113,0.57,0.169,0.856c0.393,2.023,0.809,4.041,1.259,6.049c0.023,0.101,0.043,0.203,0.066,0.305
				c0.461,2.041,0.959,4.073,1.479,6.099c0.087,0.338,0.171,0.677,0.259,1.015c0.51,1.948,1.048,3.888,1.614,5.821
				c0.11,0.375,0.221,0.748,0.332,1.122c0.58,1.948,1.183,3.889,1.818,5.82c0.088,0.267,0.181,0.533,0.269,0.8
				c0.642,1.925,1.307,3.841,2.003,5.747c0.052,0.141,0.1,0.282,0.152,0.423c0.716,1.948,1.468,3.884,2.241,5.813
				c0.136,0.34,0.27,0.68,0.408,1.019c0.758,1.863,1.544,3.717,2.354,5.562c0.157,0.358,0.318,0.715,0.477,1.072
				c0.833,1.868,1.689,3.728,2.577,5.574c0.114,0.237,0.233,0.473,0.348,0.708c0.887,1.828,1.798,3.645,2.737,5.45
				c0.06,0.116,0.115,0.235,0.177,0.351c-71.988-14.274-135.169-59.398-172.028-123.907
				c-22.506-44.702-30.615-93.031-33.451-125.839c-0.005-3.736,0.047-7.032,0.161-10.068c0.357-9.584,1.27-19.248,2.715-28.816
				c3.964,0.197,7.843,0.452,11.674,0.74c1.452,0.108,2.901,0.222,4.344,0.342c0.933,0.079,1.859,0.164,2.784,0.248
				c1.116,0.101,2.234,0.2,3.344,0.309c52.479,5.175,91.676,18.575,119.28,32.138c37.289,18.458,57.498,39.2,64.743,47.656
				C221.568,258.575,218.3,265.161,215.355,271.887z M234.099,237.819c-13.337-14.532-45.243-43.208-103.273-63.023
				c16.914-38.551,54.613-64.349,96.912-65.934c0.165-0.01,0.33-0.009,0.495-0.014c1.198-0.04,2.398-0.067,3.604-0.067
				c1.409,0.001,2.821,0.025,4.239,0.079c1.464,0.055,2.921,0.15,4.377,0.262c0.417,0.032,0.833,0.069,1.249,0.105
				c1.169,0.103,2.335,0.227,3.497,0.367c0.321,0.039,0.644,0.07,0.964,0.112c1.348,0.175,2.689,0.381,4.026,0.606
				c0.548,0.093,1.093,0.194,1.638,0.294c0.848,0.155,1.693,0.323,2.536,0.498c0.616,0.128,1.232,0.251,1.845,0.39
				c1.151,0.259,2.296,0.539,3.436,0.835c0.826,0.215,1.646,0.448,2.466,0.681c0.431,0.123,0.86,0.246,1.29,0.375
				c16.969,5.067,32.482,14.148,45.198,26.406c0.077,0.074,0.153,0.15,0.23,0.224c2.148,2.084,4.212,4.263,6.193,6.524
				c0.336,0.384,0.672,0.769,1.002,1.157c0.508,0.595,1.011,1.196,1.507,1.803c0.451,0.553,0.892,1.115,1.333,1.677
				c0.599,0.763,1.187,1.534,1.766,2.313c0.535,0.721,1.067,1.446,1.583,2.181c0.331,0.468,0.654,0.942,0.977,1.417
				c0.527,0.774,1.044,1.553,1.551,2.341c0.243,0.377,0.492,0.751,0.731,1.132c0.063,0.101,0.123,0.207,0.186,0.308
				C288.741,177.394,256.773,204.274,234.099,237.819z"/>
			<path d="M248.276,449.269c1.457,2.711,4.24,4.251,7.117,4.251c1.29,0,2.6-0.31,3.816-0.964
				c25.029-13.456,46.642-28.486,65.205-43.853c0.116-0.077,0.24-0.137,0.353-0.221c0.38-0.283,0.72-0.599,1.036-0.931
				c24.248-20.261,43.195-41.049,57.588-59.557c0.148-0.018,0.298-0.032,0.448-0.058l42.684-7.507
				c4.392-0.773,7.326-4.958,6.553-9.35s-4.955-7.323-9.35-6.553l-26.65,4.687c25.895-38.023,35.343-66.939,35.734-68.158
				c1.364-4.245-0.973-8.792-5.218-10.155c-4.246-1.367-8.792,0.972-10.155,5.219c-0.284,0.885-23.381,70.419-95.635,133.628
				c-7.862-14.049-22.372-46.847-15.691-88.592c0.705-4.403-2.293-8.544-6.695-9.247c-4.408-0.707-8.545,2.294-9.247,6.695
				c-7.928,49.525,10.297,87.118,19.027,101.695c-16.775,13.418-35.893,26.347-57.635,38.036
				C247.637,440.447,246.164,445.342,248.276,449.269z"/>
			<path d="M232.893,138.472c-31.877,2.681-51.149,18.662-61.702,31.595c-2.818,3.456-2.304,8.542,1.151,11.36
				c1.499,1.224,3.305,1.818,5.099,1.818c2.342,0,4.664-1.013,6.259-2.969c12.478-15.29,29.484-23.942,50.547-25.714
				c4.442-0.375,7.742-4.279,7.368-8.722C241.242,141.396,237.332,138.11,232.893,138.472z"/>
		</g>
	</g>
</g>
<g>
</g>
<g>
</g>
<g>
</g>
<g>
</g>
<g>
</g>
<g>
</g>
<g>
</g>
<g>
</g>
<g>
</g>
<g>
</g>
<g>
</g>
<g>
</g>
<g>
</g>
<g>
</g>
<g>
</g>
</svg>
