<?xml version="1.0" encoding="iso-8859-1"?>
<!-- Generator: Adobe Illustrator 19.0.0, SVG Export Plug-In . SVG Version: 6.00 Build 0)  -->
<svg version="1.1" id="Capa_1" xmlns="http://www.w3.org/2000/svg" xmlns:xlink="http://www.w3.org/1999/xlink" x="0px" y="0px"
	 viewBox="0 0 512 512" style="enable-background:new 0 0 512 512;" xml:space="preserve">
<g>
	<g>
		<path d="M303.152,150.675c-4.539-3.143-10.766-2.011-13.909,2.527c-4.977,7.186-15.677,15.738-28.066,25.639
			c-37.213,29.738-93.45,74.681-69.185,150.861c1.354,4.251,5.287,6.965,9.522,6.965c1.005,0,2.027-0.153,3.037-0.475
			c5.26-1.675,8.166-7.298,6.49-12.558c-20.092-63.079,25.767-99.728,62.616-129.176c13.618-10.883,25.377-20.281,32.021-29.875
			C308.822,160.045,307.691,153.818,303.152,150.675z"/>
	</g>
</g>
<g>
	<g>
		<path d="M424.984,244.439c-2.903-4.696-9.076-6.171-13.773-3.268c-4.695,2.903-6.163,9.041-3.259,13.737
			c0.119,0.198,11.942,20.172,11.807,54.297c-0.022,5.521,4.436,10.014,9.956,10.036c0.014,0,0.026,0,0.041,0
			c5.502,0,9.973-4.45,9.995-9.956C439.911,269.049,425.593,245.426,424.984,244.439z"/>
	</g>
</g>
<g>
	<g>
		<path d="M93.622,251.455h-0.467c-5.521,0-9.996,4.475-9.996,9.996c0,5.521,4.475,9.996,9.996,9.996h0.467
			c5.521,0,9.996-4.475,9.996-9.996C103.618,255.93,99.143,251.455,93.622,251.455z"/>
	</g>
</g>
<g>
	<g>
		<path d="M386.745,259.136c-1.869-1.859-4.448-2.929-7.077-2.929c-2.629,0-5.208,1.07-7.067,2.929
			c-1.859,1.859-2.929,4.438-2.929,7.067c0,2.639,1.07,5.208,2.929,7.077c1.859,1.859,4.438,2.919,7.067,2.919
			c2.639,0,5.208-1.06,7.077-2.919c1.859-1.869,2.919-4.438,2.919-7.077C389.664,263.574,388.604,260.995,386.745,259.136z"/>
	</g>
</g>
<g>
	<g>
		<path d="M128.712,357.453c-31.63-13.335-37.159-37.622-36.226-55.648c0.285-5.513-3.953-10.214-9.467-10.499
			c-5.504-0.275-10.213,3.953-10.499,9.467c-0.486,9.394,0.362,23.574,7.157,37.773c7.93,16.569,21.814,29.128,41.268,37.329
			c1.268,0.535,2.584,0.788,3.878,0.788c3.899,0,7.605-2.296,9.215-6.116C136.185,365.459,133.799,359.597,128.712,357.453z"/>
	</g>
</g>
<g>
	<g>
		<path d="M511.192,406.097c-4.232-20.554-24.273-35.144-52.272-41.114c6.503-14.681,10.812-31.678,12.825-50.717
			c4.82-45.578-17.972-87.963-42.102-132.834c-24.572-45.695-49.982-92.947-47.517-146.755c0.242-5.286-3.678-9.845-8.94-10.398
			l-35.673-3.755c-5.23-0.559-9.99,3.043-10.894,8.222c-7.886,45.165-49.547,84.841-89.836,123.209
			c-4.564,4.346-9.143,8.711-13.694,13.099c-29.529-27.98-54.463-54.726-64.918-91.231c-1.453-5.073-6.6-8.14-11.754-7.011
			l-28.653,6.294c-5.146,1.131-8.532,6.062-7.737,11.27c5.611,36.797-16.313,78.569-37.515,118.966
			c-21.2,40.392-43.121,82.159-38.368,120.996c3.075,25.123,11.672,45.204,25.573,59.968c-29.192-2.12-52.687,3.523-58.507,20.649
			c-1.504,4.428-2.361,11.605,2.107,20.65c10.113,20.47,44.659,43.149,88.01,57.777c17.868,6.03,35.771,8.09,51.903,8.09
			c33.754,0,59.738-9.025,61.321-9.587c2.886-1.025,5.143-3.315,6.124-6.216c0.981-2.9,0.58-6.091-1.092-8.657
			c-1.056-1.622-21.048-31.871-56.07-53.931c12.056-0.86,24.925-2.771,38.614-5.778c2.403-0.528,4.825-1.091,7.199-1.671
			c0.362-0.089,0.713-0.2,1.056-0.325c20.192,12.156,45.133,20.957,73.679,25.891c0.572,0.151,1.161,0.253,1.764,0.299
			c5.851,0.974,11.841,1.795,17.981,2.441c3.609,0.38,7.166,0.687,10.69,0.956c-2.715,4.307-4.252,7.15-4.53,7.672
			c-2.252,4.235-1.18,9.473,2.557,12.481c2.077,1.671,45.964,36.487,95.607,36.487c6.488,0,13.085-0.596,19.689-1.938
			c37.909-7.705,70.659-26.424,85.467-48.85C510.788,429.387,513.521,417.405,511.192,406.097z M184.255,466.73
			c-18.505,4.161-53.122,8.981-86.534-2.293c-43.632-14.723-70.23-35.042-76.478-47.689c-0.647-1.31-1.65-3.749-1.103-5.362
			c0.988-2.907,8.9-7.319,26.647-7.56c0.53-0.007,1.064-0.011,1.602-0.011c18.778,0,42.052,4.374,65.774,12.379
			C147.557,427.463,172.097,452.228,184.255,466.73z M83.614,378.756c-16.469-11.667-26.436-30.795-29.624-56.85
			c-3.994-32.642,15.542-69.867,36.226-109.276c21.07-40.145,42.806-81.56,40.546-121.913l11.07-2.431
			c12.98,36.41,38.791,64.009,66.989,90.784c-30.617,30.766-57.281,63.168-63.911,100.062c-6.614,36.804-0.197,68.477,19.073,94.139
			c4.352,5.796,9.381,11.231,15.014,16.301C148.218,395.315,109.482,397.085,83.614,378.756z M277.092,411.446
			c-44.268-7.686-78.364-25.192-97.126-50.178c-15.799-21.039-20.974-47.483-15.382-78.598
			c7.449-41.444,45.598-77.774,85.987-116.238c40.088-38.177,81.46-77.575,93.758-125.088l17.638,1.856
			c0.328,55.203,25.593,102.183,50.068,147.699c22.627,42.078,44,81.822,39.828,121.264c-2.053,19.411-6.687,36.229-13.777,50.084
			c-14.219-0.815-29.702,0.276-45.715,3.531c-6.574,1.336-12.837,3.353-18.781,5.868c9.131-16.205,15.504-36.968,16.071-63.53
			c0.118-5.519-4.26-10.09-9.78-10.207c-5.517-0.128-10.09,4.26-10.207,9.78c-0.862,40.283-16.628,69.917-46.861,88.077
			C302.617,407.897,282.165,410.871,277.092,411.446z M486.604,429.729c-11.807,17.881-40.369,33.69-72.766,40.274
			c-5.201,1.058-10.428,1.528-15.623,1.528c-32.07-0.002-62.739-17.974-76.122-27.005c10.128-15.728,36.86-51.555,74.263-59.157
			c24.126-4.904,47.687-4.481,66.343,1.191c16.311,4.958,26.849,13.549,28.913,23.569
			C492.863,416.207,491.178,422.802,486.604,429.729z"/>
	</g>
</g>
<g>
</g>
<g>
</g>
<g>
</g>
<g>
</g>
<g>
</g>
<g>
</g>
<g>
</g>
<g>
</g>
<g>
</g>
<g>
</g>
<g>
</g>
<g>
</g>
<g>
</g>
<g>
</g>
<g>
</g>
</svg>
