<?xml version="1.0" encoding="iso-8859-1"?>
<!-- Generator: Adobe Illustrator 19.0.0, SVG Export Plug-In . SVG Version: 6.00 Build 0)  -->
<svg version="1.1" id="Capa_1" xmlns="http://www.w3.org/2000/svg" xmlns:xlink="http://www.w3.org/1999/xlink" x="0px" y="0px"
	 viewBox="0 0 511.998 511.998" style="enable-background:new 0 0 511.998 511.998;" xml:space="preserve">
<g>
	<g>
		<path d="M26.959,246.641c-5.156-1.966-10.938,0.618-12.907,5.777l-0.308,0.813c-1.945,5.168,0.668,10.934,5.837,12.88
			c1.16,0.437,2.351,0.644,3.521,0.644c4.045,0,7.852-2.472,9.36-6.48l0.274-0.727C34.704,254.39,32.118,248.611,26.959,246.641z"/>
	</g>
</g>
<g>
	<g>
		<path d="M470.149,202.904c-21.392-27.085-48.391-44.708-77.814-51.222c29.109-10.284,45.612-41.683,37.02-71.761
			c-7.446-26.065-34.712-41.22-60.778-33.769c-10.615,3.032-19.415,10.017-24.777,19.668c-5.362,9.649-6.646,20.812-3.613,31.427
			c2.572,9.006,8.498,16.472,16.686,21.02c8.189,4.549,17.657,5.639,26.664,3.064c7.929-2.265,14.252-8.543,16.915-16.794
			c2.639-8.177,1.31-17.018-3.469-23.072c-3.422-4.335-9.712-5.076-14.044-1.653c-4.336,3.422-5.076,9.709-1.654,14.045
			c0.458,0.579,0.817,2.423,0.134,4.538c-0.363,1.129-1.286,3.11-3.376,3.707c-7.988,2.281-16.344-2.36-18.626-10.348
			c-1.564-5.479-0.902-11.24,1.865-16.222c2.768-4.98,7.31-8.586,12.788-10.15c7.488-2.139,15.367-1.234,22.177,2.55
			c6.811,3.784,11.739,9.992,13.879,17.484c5.9,20.654-6.104,42.259-26.758,48.159c-14.228,4.062-29.149,1.786-41.287-5.853
			c0.699-1.031,1.219-2.187,1.496-3.433c0.654-2.943-0.055-6.023-1.928-8.385l-24.982-31.486c-2.933-3.695-8.05-4.841-12.276-2.743
			c-10.947,5.43-21.164,12.473-30.502,20.531c-0.782-0.383-1.62-0.679-2.516-0.851c-7.917-1.521-13.217-9.237-15.672-13.702
			c-7.306-13.286-8.857-31.565-3.773-44.451c1.648-4.181,0.307-8.948-3.282-11.653c-3.588-2.705-8.541-2.685-12.106,0.05
			c-10.253,7.867-23.805,10.973-37.186,8.51c-12.308-2.262-30.233-10.232-45.741-35.36c-2.18-3.531-6.312-5.351-10.39-4.569
			c-4.076,0.78-7.246,3.998-7.967,8.085c-4.481,25.414-12.436,41.432-24.32,48.97c-10.325,6.55-24.815,7.158-44.298,1.854
			c-4.331-1.18-8.925,0.676-11.221,4.54c-2.297,3.862-1.733,8.781,1.375,12.026c41.608,43.431-3.787,113.143-4.434,114.121
			c-0.484,0.726-0.849,1.494-1.122,2.281c-5.092,5.395-9.911,11.242-14.405,17.537c-3.209,4.495-2.167,10.739,2.328,13.948
			c1.762,1.258,3.791,1.862,5.802,1.862c3.121,0,6.196-1.457,8.147-4.19c23.758-33.275,57.436-52.359,92.4-52.359
			c17.849,0,35.406,4.919,51.534,14.301c-4.801,1.088-9.513,2.814-14.026,5.187c-45.235,23.797-70.147,70.545-70.147,131.636
			c0,61.2,24.007,126.537,60.771,167.893c-9.181,2.722-18.597,4.103-28.13,4.103c-69.197,0-125.493-72.475-125.493-161.559
			c0-11.072,0.878-22.137,2.609-32.885c0.878-5.452-2.83-10.583-8.283-11.462c-5.436-0.876-10.584,2.829-11.462,8.282
			c-1.899,11.796-2.863,23.931-2.863,36.064c0,48.064,14.857,93.348,41.837,127.509c27.525,34.852,64.337,54.047,103.652,54.047
			c15.178,0,30.079-2.893,44.376-8.592c8.148,5.68,17.594,8.621,27.239,8.621c6.533,0,13.157-1.349,19.523-4.103
			c7.868-3.406,14.437-8.563,19.354-14.922c4.917,6.36,11.487,11.517,19.354,14.922c6.367,2.756,12.989,4.103,19.523,4.103
			c9.643,0,19.09-2.941,27.238-8.621c14.298,5.699,29.198,8.592,44.377,8.592c39.315,0,76.128-19.195,103.655-54.051
			c26.979-34.16,41.837-79.443,41.837-127.508C511.982,282.345,497.127,237.065,470.149,202.904z M335.004,148.43
			c2.202,0.813,4.263,1.88,6.153,3.172c-15.273,3.344-30.011,9.718-43.682,18.905c4.705-7.594,10.421-15.014,16.905-21.602
			C320.979,146.12,328.264,145.94,335.004,148.43z M166.753,65.163c-5.522,0-9.999,4.478-9.999,9.999v33.966l-19.039-14.435
			c-4.4-3.338-10.673-2.473-14.01,1.927c-3.337,4.401-2.474,10.673,1.927,14.01l31.122,23.598v15.181
			c-3.732-0.357-7.483-0.555-11.248-0.555c-20.53,0-40.594,5.425-58.968,15.57c1.227-3.526,2.386-7.221,3.417-11.061
			c7.185-26.763,5.718-50.807-4.13-70.815c14.009,0.71,25.838-2.095,35.822-8.429c12.704-8.06,22.015-21.593,28.195-41.102
			c16.095,17.729,33.184,24.423,45.894,26.76c11.315,2.08,22.767,1.312,33.295-2.056c-0.443,13.553,2.69,27.83,9.143,39.565
			c5.16,9.385,12.036,16.363,19.898,20.387c-0.623,0.689-1.234,1.385-1.846,2.082c-0.485-0.34-1.001-0.647-1.558-0.904
			c-15.157-6.982-31.849-8.551-47.807-4.655l9.447-11.364c3.531-4.247,2.95-10.551-1.297-14.081
			c-4.248-3.532-10.551-2.95-14.081,1.297l-24.179,29.084V75.162C176.752,69.64,172.274,65.163,166.753,65.163z M180.925,154.274
			c6.126-8.578,14.656-15.129,24.75-18.857c12.355-4.562,25.68-4.389,37.851,0.419c-9.367,13.237-16.694,27.053-21.583,40.014
			C209.192,166.024,195.361,158.768,180.925,154.274z M246,463.237c-0.001,13.873-8.937,22.685-17.3,26.305
			c-8.31,3.597-20.765,4.082-30.806-5.345c-38.289-35.942-65.029-103.473-65.029-164.222c0-54.075,20.561-93.474,59.459-113.935
			c5.405-2.844,11.251-4.258,17.085-4.258c6.54,0,13.062,1.778,18.92,5.315C239.394,213.781,246,225.489,246,238.417V463.237z
			 M256,206.195c-4.469-6.44-10.32-11.981-17.333-16.216c-0.123-0.074-0.249-0.143-0.372-0.217
			c9.048-29.756,34.957-66.904,67.921-86.34l12.02,15.149c-0.142,0.119-0.287,0.231-0.424,0.36
			c-0.757,0.711-1.379,1.514-1.864,2.373c-26.074,18.709-45.255,49.995-50.843,74.7C261.636,199.048,258.585,202.469,256,206.195z
			 M314.105,484.197c-10.044,9.426-22.501,8.938-30.807,5.345c-8.364-3.62-17.3-12.431-17.3-26.305v-224.82
			c0-12.929,6.606-24.637,17.672-31.319c5.858-3.537,12.379-5.315,18.92-5.315c5.833,0,11.681,1.415,17.085,4.258
			c38.898,20.462,59.459,59.86,59.459,113.935C379.134,380.724,352.393,448.255,314.105,484.197z M366.492,491.971
			c-9.533,0-18.949-1.381-28.13-4.103c36.763-41.357,60.77-106.694,60.77-167.893c0-61.091-24.912-107.839-70.147-131.636
			c-4.512-2.374-9.224-4.099-14.024-5.188c16.127-9.381,33.684-14.3,51.532-14.3c69.197,0,125.493,72.475,125.493,161.559
			S435.691,491.971,366.492,491.971z"/>
	</g>
</g>
<g>
	<g>
		<path d="M439.278,228.356l-0.521-0.664c-3.424-4.334-9.711-5.07-14.045-1.646c-4.334,3.424-5.071,9.712-1.646,14.045l0.426,0.543
			c1.971,2.534,4.92,3.86,7.9,3.86c2.145,0,4.307-0.687,6.133-2.106C441.883,238.999,442.669,232.715,439.278,228.356z"/>
	</g>
</g>
<g>
	<g>
		<path d="M459.812,264.548c-2.038-5.135-7.856-7.64-12.983-5.604c-5.134,2.038-7.642,7.851-5.604,12.983
			c7.042,17.731,10.763,37.954,10.763,58.484c0,34.629-10.272,66.706-28.924,90.322c-3.423,4.334-2.685,10.622,1.649,14.045
			c1.836,1.449,4.021,2.152,6.191,2.152c2.955,0,5.881-1.302,7.856-3.8c21.427-27.131,33.228-63.611,33.228-102.718
			C471.987,307.051,467.891,284.891,459.812,264.548z"/>
	</g>
</g>
<g>
</g>
<g>
</g>
<g>
</g>
<g>
</g>
<g>
</g>
<g>
</g>
<g>
</g>
<g>
</g>
<g>
</g>
<g>
</g>
<g>
</g>
<g>
</g>
<g>
</g>
<g>
</g>
<g>
</g>
</svg>
