<svg id="Layer_1" enable-background="new 0 0 481.139 481.139" height="512" viewBox="0 0 481.139 481.139" width="512" xmlns="http://www.w3.org/2000/svg"><path d="m433.223 283.582c38.22-32.727 56.196-85.44 42.752-136.714-.219-.438-4.824-22.367-26.984-34.176 8.617-35.703-14.856-64.268-44.566-68.277-21.276-2.871-42.62-.642-62.475 6.299-1.799-2.868-3.87-5.579-6.211-8.078-48.281-51.51-127.755-56.856-182.479-13.266.123-.245-20.951 15.127-20.48 43.293-62.661.428-117.302 44.315-130.784 106.186-6.789 31.157 14.545 61.389 46.171 65.436 5.343.684 10.686 1.033 16.011 1.08-19.977 18.617-33.876 42.88-39.762 69.887-3.239 14.863-.08 30.498 8.666 42.894 13.486 19.11 32.596 23.641 54.715 23.641 24.237-.001 47.997-6.529 68.91-18.996.677 41.989 20.9 83.072 58.035 108.812 25.552 17.714 61.146 9.996 76.996-16.9 3.683-6.25 6.812-12.738 9.418-19.392 2.872 1.37 5.869 2.509 8.977 3.363 67.556 18.556 138.447-17.736 162.532-84.011 10.139-27.894-3.88-62.061-39.442-71.081zm-235.403-148.198c20.179-2.49 40.182 1.126 57.755 9.759-8.664 34.417 11.584 61.207 38.1 68.27-20.244.395-40.531 5.353-59.463 15.17-24.068-5.48-45.17-19.269-59.737-38.838 12.816-17.636 20.946-38.688 23.345-54.361zm2.055 177.112c18.596-50.099 72.651-77.83 124.417-63.229 12.03 3.393 18.904 16.49 14.568 28.423-3.053 8.4-7.161 16.26-12.148 23.463-12.834 8.305-24.083 18.661-33.339 30.625-23.292 13.357-51.355 17.451-78.492 9.994-12.614-3.464-19.608-16.875-15.006-29.276zm245.146-157.513c13.553 51.687-14.769 105.444-65.529 123.222-2.66.932-5.409 1.324-8.135 1.198 3.581-20.987-5.446-41.971-23.069-53.827.496-4.622 1.306-9.209 2.428-13.734 37.329-9.379 69.03-34.327 86.819-68.527 3.646 2.954 6.255 6.975 7.486 11.668zm-44.875-78.855c12.391 1.671 21.031 13.679 18.414 26.097-11.107 52.7-60.822 87.617-113.755 80.854-12.973-1.662-21.784-13.953-18.967-26.883 11.505-52.798 61.619-87.186 114.308-80.068zm-226.948-21.727c0-.001 0-.001 0 0 43.51-34.658 106.072-27.469 139.634 10.639-19.502 12.699-35.135 29.925-45.784 50.132-23.756-11.027-49.38-14.659-74.05-11.454-5.813-11.971-15.687-21.078-27.479-26.075-2.199-8.179.333-17.391 7.679-23.242zm-139.936 131.263c0-.001 0-.001 0 0 11.508-52.811 61.633-87.185 114.309-80.069 12.391 1.671 21.031 13.679 18.414 26.097-11.107 52.701-60.822 87.617-113.755 80.854-12.973-1.663-21.786-13.954-18.968-26.882zm41.387 163.281c-12.972-1.66-21.784-13.951-18.966-26.881 11.505-52.797 61.619-87.185 114.309-80.067 12.181 1.643 20.573 13.166 18.589 25.144-7.786 10.343-22.814 44.793-24.022 48.165-22.325 25.021-55.701 38.021-89.91 33.639zm158.324 96.358c-27.649-19.164-43.17-49.639-44.21-81.183 20.469 14.926 58.1 15.632 82.837 10.068-2.744 12.001-1.353 24.676 4.044 35.815-2.356 9.905-6.194 19.493-11.474 28.453-6.359 10.791-20.783 14.066-31.197 6.847zm209.618-101.57c-18.394 50.614-72.529 78.219-123.979 64.083-12.615-3.465-19.608-16.876-15.006-29.277 18.594-50.094 72.652-77.832 124.417-63.229 12.029 3.394 18.904 16.49 14.568 28.423z"/></svg>