<?xml version="1.0" encoding="iso-8859-1"?>
<!-- Generator: Adobe Illustrator 19.0.0, SVG Export Plug-In . SVG Version: 6.00 Build 0)  -->
<svg version="1.1" id="Capa_1" xmlns="http://www.w3.org/2000/svg" xmlns:xlink="http://www.w3.org/1999/xlink" x="0px" y="0px"
	 viewBox="0 0 512 512" style="enable-background:new 0 0 512 512;" xml:space="preserve">
<g>
	<g>
		<g>
			<path d="M472.464,230.25c4.857-9.747,7.434-20.47,7.536-31.36c0-41.344-34.352-105.12-80-105.12c-1.088,0-2.128,0.208-3.2,0.288
				C376.254,74.166,348.59,63.343,320,64.01c-17.401-0.002-34.579,3.919-50.256,11.472C260.052,31.459,221.077,0.081,176,0.01h-16
				v32h16c30.155,0.023,56.203,21.092,62.528,50.576C220.018,70.267,198.233,63.795,176,64.01c-42.064,0-78.816,21.76-91.2,52.56
				c-31.765,22.42-51.282,58.35-52.8,97.2c0.111,6.967,1.254,13.88,3.392,20.512C14.329,257.203,1.827,286.694,0,317.77
				c1.367,42.863,37.132,76.554,80,75.36c0.416,0,0.8-0.096,1.216-0.096c-0.761,4.581-1.168,9.213-1.216,13.856
				c1.375,42.859,37.135,76.545,80,75.36c9.835-0.044,19.585-1.826,28.8-5.264c25.968,37.114,77.105,46.149,114.219,20.181
				c7.855-5.496,14.685-12.326,20.181-20.181c9.215,3.438,18.965,5.22,28.8,5.264c42.865,1.185,78.625-32.501,80-75.36
				c-0.066-4.644-0.488-9.277-1.264-13.856c0.432,0,0.832,0.112,1.264,0.112c42.889,1.184,78.659-32.54,80-75.424
				C510.38,284.609,496.249,253.345,472.464,230.25z M400,125.77c23.808,0,48,46.912,48,73.12c-0.063,5.347-1.206,10.626-3.36,15.52
				c-4.116-1.154-8.365-1.767-12.64-1.824c-19.507,1.236-37.48,10.998-49.136,26.688c-17.914-5.405-30.352-21.679-30.864-40.384
				C352,172.682,376.192,125.77,400,125.77z M365.216,266.426L365.216,266.426c-4.903,10.03-8.568,20.62-10.912,31.536
				c-5.81,2.4-12.019,3.692-18.304,3.808c-16.591,0.182-32.16-7.996-41.424-21.76c16.992-7.508,31.869-19.094,43.312-33.728
				C345.413,254.916,354.742,261.793,365.216,266.426z M320,96.01c15.354-0.151,30.442,4.007,43.552,12
				c-16.51,14.304-28.964,32.702-36.112,53.344c-17.697-17.999-37.368-33.946-58.64-47.536C283.127,101.843,301.334,95.51,320,96.01
				z M257.6,144.842C288.896,166.41,320,195.21,320,208.01c0,22.048-35.296,49.136-64,49.136c-25.213,1.17-46.647-18.22-48-43.424
				C208,198.41,235.04,166.41,257.6,144.842z M217.712,279.53l-0.112,0c-9.173,14.015-24.85,22.397-41.6,22.24
				c-25.239,1.143-46.672-18.29-48-43.52c0-26.208,24.192-73.12,48-73.12c2.59,0.054,5.147,0.597,7.536,1.6
				c-4.501,8.32-7.076,17.544-7.536,26.992C176.454,241.747,192.561,267.158,217.712,279.53z M176,96.01
				c22.58-1.319,44.371,8.515,58.32,26.32l0.192,0.304c-12.083,11.47-23.313,23.807-33.6,36.912
				c-7.664-4.119-16.212-6.32-24.912-6.416c-0.784,0-1.6,0.176-2.32,0.208c-9.716-19.183-26.144-34.125-46.16-41.984
				C141.573,101.086,158.599,95.697,176,96.01z M112,140.65c13.498,2.794,24.958,11.646,31.072,24
				c-27.304,22.249-44.256,54.748-46.88,89.872C77.71,249.43,64.675,232.928,64,213.77C64,187.562,88.192,140.65,112,140.65z
				 M91.376,359.706c-3.725,0.906-7.542,1.384-11.376,1.424c-25.192,1.18-46.622-18.178-48-43.36
				c1.507-19.642,8.596-38.444,20.432-54.192c13.283,13.924,31.085,22.669,50.224,24.672c5.029,10.615,12.443,19.924,21.664,27.2
				C110.013,327.408,98.727,342.57,91.376,359.706z M160,450.25c-25.192,1.18-46.622-18.178-48-43.36
				c0-26.208,24.192-73.12,48-73.12c6.106,0.459,11.876,2.975,16.368,7.136c-0.176,2.176-0.368,4.368-0.368,6.4
				c0.288,24.006,12.222,46.375,32,59.984C206.395,432.305,185.039,451.419,160,450.25z M256,480.01
				c-15.651,0.243-30.473-7.019-39.872-19.536c11.427-10.505,19.262-24.335,22.4-39.536c11.524,2.603,23.484,2.603,35.008,0
				c3.138,15.201,10.973,29.031,22.4,39.536C286.524,473.009,271.673,480.274,256,480.01z M256,390.89
				c-25.239,1.143-46.672-18.29-48-43.52c0.331-7.566,1.809-15.038,4.384-22.16c16.099-7.68,29.085-20.638,36.8-36.72
				c2.288,0.192,4.496,0.656,6.848,0.656c2.352,0,4.64-0.16,7.008-0.384c7.728,15.961,20.654,28.82,36.656,36.464
				c2.518,7.129,3.969,14.591,4.304,22.144C302.672,372.599,281.239,392.032,256,390.89z M352,450.25
				c-25.016,1.17-46.362-17.907-48-42.896c19.778-13.609,31.712-35.978,32-59.984c-0.068-4.591-0.491-9.17-1.264-13.696
				c0.432,0,0.832,0.096,1.264,0.096c5.889-0.045,11.757-0.716,17.504-2c5.025,23.214,20.609,42.746,42.128,52.8
				c2.552,7.183,4.024,14.705,4.368,22.32C398.622,432.072,377.192,451.43,352,450.25z M432,361.146
				c-25.213,1.17-46.647-18.221-48-43.424c0-26.208,24.192-73.136,48-73.136c23.808,0,48,46.928,48,73.136
				C478.647,342.925,457.213,362.316,432,361.146z"/>
			<rect x="96" y="0.01" width="32" height="32"/>
			<rect x="32" y="0.01" width="32" height="32"/>
		</g>
	</g>
</g>
<g>
</g>
<g>
</g>
<g>
</g>
<g>
</g>
<g>
</g>
<g>
</g>
<g>
</g>
<g>
</g>
<g>
</g>
<g>
</g>
<g>
</g>
<g>
</g>
<g>
</g>
<g>
</g>
<g>
</g>
</svg>
