<svg height="511pt" viewBox="-56 1 511 511.99863" width="511pt" xmlns="http://www.w3.org/2000/svg"><path d="m43.394531 284.464844c20.117188 20.050781 37.492188 37.367187 37.492188 71.941406v145.59375c0 5.523438 4.476562 10 10 10h80c5.523437 0 10-4.476562 10-10v-62c0-5.523438-4.476563-10-10-10-5.523438 0-10 4.476562-10 10v52h-60v-135.589844c0-42.882812-23.042969-65.847656-43.375-86.109375-17.320313-17.261719-33.679688-33.5625-36.683594-61.375-1.882813-17.410156 4.539063-32.585937 11.972656-50.152343 1.460938-3.460938 2.953125-6.988282 4.417969-10.617188 14.394531 2.867188 27.222656 6.546875 38.332031 10.976562-9.726562 17.375-14.664062 34.445313-14.664062 50.867188 0 49.347656 44.476562 91.742188 63.597656 107.679688 1.851563 1.546874 4.128906 2.320312 6.402344 2.320312 2.273437 0 4.546875-.773438 6.398437-2.320312 28.339844-23.609376 61.996094-65.878907 63.589844-107.265626.75-18.085937-4.578125-35.382812-13.257812-51.019531 11.226562-4.660156 23.738281-8.46875 36.929687-11.226562.390625.976562 3.238281 7.941406 4.238281 10.347656 7.4375 17.929687 13.867188 33.414063 12.148438 50.484375-2.070313 20.683594-12.023438 34.242188-21.488282 44.773438-.023437.027343-.042968.054687-.066406.082031-7.902344 8.777343-17.691406 17.574219-26.3125 26.621093-15.914062 16.683594-32.183594 38.542969-32.183594 74.160157v5.363281c0 5.523438 4.476563 10 10 10 5.523438 0 10-4.476562 10-10v-5.363281c0-22.613281 7.535157-38.007813 19.445313-52.308594 12.859375 15.207031 20.554687 30.757813 20.554687 54.082031v145.589844c0 5.523438 4.480469 10 10 10h80c5.523438 0 10-4.476562 10-10v-147.363281c0-34.523438 18.355469-52.484375 37.785157-71.5 19.039062-18.625 38.71875-37.882813 42.164062-72.136719 2.21875-22.085938-5.457031-40.585938-13.585937-60.175781-2.339844-5.644531-4.765625-11.480469-6.976563-17.5-.199219-.535157-.441406-1.042969-.714843-1.523438-5.316407-29.714843-25.71875-59.027343-62.269532-89.484375-.53125-.441406-1.101562-.8125-1.691406-1.128906-9.855469-12.886719-22.421875-25.640625-38.308594-38.871094-3.707031-3.089844-9.097656-3.089844-12.804687.003906-14.207031 11.839844-26.804688 24.953126-36.746094 38.195313-5.15625 1.707031-22.660156 19.675781-26.578125 23.929687-7.023438-7.34375-15.011719-14.753906-23.875-22.132812-.53125-.441406-1.097656-.8125-1.6875-1.125-9.855469-12.886719-22.421875-25.640625-38.308594-38.871094-3.707031-3.085937-9.09375-3.085937-12.804687.003906-14.203125 11.839844-26.804688 24.953126-36.746094 38.195313-1.160156.386719-2.265625.980469-3.25 1.800781-19.382813 16.148438-52.371094 48.578125-61.332031 88.164063-1.855469 2.261719-.53125 1.011719-8.773438 20.5-7.804687 18.449219-15.875 37.523437-13.4375 60.09375 3.769532 34.839843 23.433594 54.4375 42.453125 73.390625zm137.5-74.851563c-1.160156 30.070313-25.027343 64.238281-50.039062 87.132813-18.839844-16.933594-49.96875-50.417969-49.96875-86.75 0-15.585938 5.875-32.367188 17.46875-49.878906 8.34375-12.601563 19.511719-25.253907 32.558593-36.9375 14.441407 12.710937 25.851563 25.25 33.980469 37.363281 9.800781 14.59375 16.734375 31.445312 16 49.070312zm79.941407 1.386719c2.222656-22.078125-5.453126-40.570312-13.578126-60.148438-.257812-.621093-.519531-1.265624-.777343-1.890624 6.980469-8.808594 15.277343-17.566407 24.4375-25.773438 14.4375 12.707031 25.851562 25.25 33.976562 37.359375 11.230469 16.714844 16.613281 33.222656 16 49.066406-1.160156 30.074219-25.035156 64.242188-50.050781 87.132813-12.578125-11.269532-23.304688-23.328125-31.519531-35.429688 9.574219-11.765625 19.246093-27.722656 21.511719-50.316406zm120.097656-2.003906c-2.714844 27.035156-19.003906 42.972656-36.25 59.847656-20.527344 20.085938-43.796875 42.855469-43.796875 85.792969v137.363281h-60v-135.589844c0-31.390625-12.191407-51.964844-26.800781-68.765625 4.171874-4.125 7.195312-7.027343 11.394531-11.234375 10.308593 14.339844 23.597656 28.425782 39 41.269532.0625.050781.128906.09375.191406.144531 3.671875 2.921875 8.808594 2.875 12.421875.003906.0625-.050781.128906-.09375.195312-.148437 28.335938-23.609376 61.992188-65.878907 63.589844-107.292969.652344-16.859375-3.816406-33.96875-13.265625-50.988281 11.230469-4.664063 23.742188-8.472657 36.9375-11.234376 1.40625 3.53125 2.832031 6.960938 4.226563 10.324219 7.445312 17.941407 13.875 33.4375 12.15625 50.507813zm-22.5-79.964844c-15.003906 3.265625-29.230469 7.800781-41.921875 13.363281-9.214844-12.277343-20.949219-24.480469-35.625-37.042969v-8.925781c7.992187-11.332031 18.269531-22.703125 30.027343-33.238281 25.78125 22.707031 41.714844 44.792969 47.519532 65.84375zm-87.515625-105.84375c10.019531 8.816406 18.578125 17.550781 25.578125 26.097656-9.347656 8.480469-17.851563 17.449219-25.140625 26.558594-7.15625-8.664062-15.609375-17.308594-25.476563-26.105469 7.105469-9.078125 15.578125-18.078125 25.039063-26.550781zm-40.003907 39.996094c12.222657 10.753906 22.277344 21.398437 29.972657 31.707031v10.488281c-8.035157 6.953125-15.539063 14.332032-22.273438 21.882813-3.691406-15.804688-11.820312-31.765625-24.238281-47.636719 5.078125-5.636719 10.605469-11.136719 16.539062-16.441406zm-37.1875 22.785156c12.585938 14.632812 20.863282 29.074219 24.707032 43.0625-15.003906 3.265625-29.226563 7.800781-41.921875 13.363281-9.214844-12.277343-20.949219-24.480469-35.625-37.042969v-8.925781c7.992187-11.332031 18.269531-22.699219 30.035156-33.242187 8.730469 7.679687 16.378906 15.320312 22.804687 22.785156zm-62.808593-62.78125c10.019531 8.816406 18.578125 17.550781 25.578125 26.097656-9.347656 8.480469-17.851563 17.449219-25.144532 26.558594-7.152343-8.664062-15.609374-17.308594-25.472656-26.105469 7.109375-9.078125 15.578125-18.078125 25.039063-26.550781zm-40.007813 39.996094c12.226563 10.757812 22.285156 21.402344 29.976563 31.707031v10.484375c-13.28125 11.480469-24.964844 23.984375-34.289063 36.675781-12.375-5.28125-26.390625-9.539062-42.402344-12.882812 6.640626-21.554688 23.117188-44.878907 46.714844-65.984375zm0 0"/><path d="m180.886719 400c0 5.519531-4.476563 10-10 10-5.523438 0-10-4.480469-10-10 0-5.523438 4.476562-10 10-10 5.523437 0 10 4.476562 10 10zm0 0"/></svg>