<svg id="Capa_1" enable-background="new 0 0 512 512" height="512" viewBox="0 0 512 512" width="512" xmlns="http://www.w3.org/2000/svg"><g><path d="m294.926 50.253h-10.486c-5.523 0-10 4.477-10 10s4.477 10 10 10h10.485c5.523 0 10-4.477 10-10s-4.477-10-9.999-10z"/><path d="m261.385 100.99h-10.485c-5.523 0-10 4.477-10 10s4.477 10 10 10h10.485c5.523 0 10-4.477 10-10s-4.478-10-10-10z"/><path d="m338.494 110.99c0-5.522-4.477-10-10-10h-10.484c-5.523 0-10 4.477-10 10s4.477 10 10 10h10.485c5.523 0 9.999-4.478 9.999-10z"/><path d="m353.636 151.728h-10.485c-5.523 0-10 4.477-10 10 0 5.522 4.477 10 10 10h10.485c5.523 0 10-4.477 10-10-.001-5.522-4.477-10-10-10z"/><path d="m294.926 151.728h-10.486c-5.523 0-10 4.477-10 10 0 5.522 4.477 10 10 10h10.485c5.523 0 10-4.477 10-10 0-5.522-4.477-10-9.999-10z"/><path d="m236.215 151.728h-10.485c-5.523 0-10 4.477-10 10 0 5.522 4.477 10 10 10h10.485c5.523 0 10-4.477 10-10 0-5.522-4.477-10-10-10z"/><path d="m294.926 202.438h-10.486c-5.523 0-10 4.477-10 10 0 5.522 4.477 10 10 10h10.485c5.523 0 10-4.477 10-10s-4.477-10-9.999-10z"/><path d="m353.636 202.438h-10.485c-5.523 0-10 4.477-10 10 0 5.522 4.477 10 10 10h10.485c5.523 0 10-4.477 10-10-.001-5.523-4.477-10-10-10z"/><path d="m353.636 253.176h-10.485c-5.523 0-10 4.477-10 10 0 5.522 4.477 10 10 10h10.485c5.523 0 10-4.477 10-10-.001-5.523-4.477-10-10-10z"/><path d="m294.926 253.176h-10.486c-5.523 0-10 4.477-10 10 0 5.522 4.477 10 10 10h10.485c5.523 0 10-4.477 10-10s-4.477-10-9.999-10z"/><path d="m449.465 213.118c-2.188-2.869-5.751-4.341-9.326-3.839-3.574.496-6.603 2.88-7.926 6.236-1.957 4.964-3.931 9.43-5.982 13.534-3.121-57.248-16.455-110.432-38.338-151.905-26.251-49.747-61.875-77.144-100.31-77.144-29.09 0-56.806 15.781-80.151 45.635-17.546 22.438-31.895 51.871-42.099 86.106-5.622-12.834-11.017-28.555-16.043-48.518-.931-3.696-3.882-6.542-7.609-7.338-3.729-.795-7.584.596-9.942 3.59-28.709 36.433-37.825 100.712-37.121 151.255-17.077-7.761-33.149-12.53-47.274-13.708-3.998-.332-7.818 1.76-9.684 5.318-1.867 3.556-1.425 7.885 1.123 10.991 20.883 25.449 36.208 61.09 52.434 98.823 2.245 5.22 4.499 10.464 6.78 15.707 2.204 5.064 8.098 7.383 13.159 5.179 5.064-2.204 7.383-8.095 5.179-13.16-2.269-5.216-4.512-10.433-6.746-15.627-12.732-29.61-24.93-57.977-39.962-82.007 9.596 3.221 19.852 7.793 30.48 13.52.121.072.233.157.357.224 43.858 23.731 97.159 69.96 133.852 122.758.7 1.013 20.668 33.106 27.211 47.777 10.038 22.509 15.637 44.192 16.202 63.836-50.946-1.557-89.576-24.553-120.981-71.79-3.057-4.599-9.263-5.849-13.864-2.791-4.599 3.057-5.848 9.264-2.791 13.863 17.39 26.157 36.47 45.306 58.331 58.54 24.713 14.962 52.491 22.263 84.788 22.263 1.237 0 2.485-.018 3.736-.039 6.898 1.052 13.73 1.592 20.492 1.592 23.953 0 46.997-6.592 68.736-19.697 24.613-14.837 46.728-37.921 63.954-66.757 20.051-33.563 32.451-72.97 34.915-110.961 2.618-40.379-6.466-76.413-25.58-101.466zm-240.766 102.816c-29.94-31.415-62.852-57.365-93.789-74.84-2.302-50.069 5.879-98.943 21.224-130.703 15.512 49.797 33.67 70.014 51.3 89.641 13.616 15.159 26.477 29.477 37.258 58.689 10.432 28.263 20.71 66.891 30.692 115.289-12.88-19.483-28.509-39.005-46.685-58.076zm79.048 122.217c-14.068-82.142-28.97-144.842-44.293-186.355-12.105-32.803-26.866-49.236-41.141-65.128-7.717-8.591-15.543-17.307-23.176-29.065 9.542-40.558 24.734-74.947 44.05-99.649 13.54-17.316 35.703-37.955 64.397-37.955 30.659 0 60.001 23.609 82.622 66.479 23.693 44.902 36.741 104.822 36.741 168.722 0 .489-.012.965-.016 1.45-4.682 4.977-9.987 9.915-16.18 15.36-45.165 39.64-78.208 96.998-100.335 174.41-.816-2.741-1.721-5.5-2.669-8.269zm135.214-22.861c-31.195 52.219-75.667 79.592-123.32 76.421 20.639-94.211 54.812-161.233 104.31-204.675 7.731-6.799 14.378-13.097 20.268-19.705.149-.16.295-.322.433-.492 6.965-7.883 12.869-16.234 18.217-26.44 22.231 45.327 14.867 116.68-19.908 174.891z"/><path d="m118.923 377.705c-3.905 3.905-3.905 10.237 0 14.142l.028.028c1.95 1.949 4.499 2.922 7.05 2.922 2.56 0 5.122-.98 7.078-2.936 3.905-3.905 3.89-10.25-.014-14.156-3.905-3.904-10.237-3.904-14.142 0z"/></g></svg>