<svg id="Layer_3" enable-background="new 0 0 64 64" height="512" viewBox="0 0 64 64" width="512" xmlns="http://www.w3.org/2000/svg"><path d="m19 14c-5.823 0-9 15.193-9 23 0 8.528 3.367 10.568 7.369 10.931.204.043.414.069.631.069h2c.217 0 .427-.026.631-.069 4.002-.363 7.369-2.403 7.369-10.931 0-7.807-3.177-23-9-23zm0 32c-.397 0-.784-.011-1.164-.033-.47-.081-.836-.473-.836-.967 0-.552.449-1 1-1h2c.551 0 1 .448 1 1 0 .494-.366.886-.836.967-.38.022-.767.033-1.164.033zm2-5c0 .552-.449 1-1 1h-2c-.551 0-1-.448-1-1s.449-1 1-1h2c.551 0 1 .448 1 1zm0-16c0 .552-.449 1-1 1h-2c-.551 0-1-.448-1-1s.449-1 1-1h2c.551 0 1 .448 1 1zm0 12c0 .552-.449 1-1 1h-2c-.551 0-1-.448-1-1s.449-1 1-1h2c.551 0 1 .448 1 1zm-4-4c0-.552.449-1 1-1h2c.551 0 1 .448 1 1s-.449 1-1 1h-2c-.551 0-1-.448-1-1zm4-4c0 .552-.449 1-1 1h-2c-.551 0-1-.448-1-1s.449-1 1-1h2c.551 0 1 .448 1 1zm2 6c0-.552.449-1 1-1h1.877c.052.672.089 1.34.107 2h-1.984c-.551 0-1-.448-1-1zm1-3c-.551 0-1-.448-1-1s.449-1 1-1h1.389c.109.663.205 1.331.287 2zm1.018-4h-1.018c-.551 0-1-.448-1-1s.449-1 1-1h.558c.164.653.319 1.32.46 2zm-4.018-7c0 .552-.449 1-1 1h-2c-.551 0-1-.448-1-1s.449-1 1-1h2c.551 0 1 .448 1 1zm-5.22 2c-.311.345-.54.76-.664 1.22-.346-.139-.721-.22-1.116-.22h-.004c.315-1.038.655-2.014 1.014-2.904.024.733.311 1.395.77 1.904zm-1.78 3c.551 0 1 .448 1 1s-.449 1-1 1h-1.018c.141-.68.296-1.347.46-2zm0 4c.551 0 1 .448 1 1s-.449 1-1 1h-1.676c.082-.669.178-1.337.287-2zm0 4c.551 0 1 .448 1 1s-.449 1-1 1h-1.985c.018-.66.055-1.328.107-2zm-1.975 4h1.975c.551 0 1 .448 1 1s-.449 1-1 1h-1.822c-.078-.602-.128-1.272-.153-2zm11.975 0h1.975c-.025.728-.075 1.398-.153 2h-1.822c-.551 0-1-.448-1-1s.449-1 1-1zm0-14c-.395 0-.77.081-1.116.22-.125-.461-.354-.876-.665-1.22.459-.509.747-1.171.771-1.904.359.89.699 1.865 1.014 2.904zm-5-8c.63 0 1.289.473 1.94 1.294-.127.406-.493.706-.94.706h-2c-.447 0-.813-.3-.94-.706.651-.821 1.31-1.294 1.94-1.294zm-6.416 26h1.416c.395 0 .77-.081 1.116-.22.125.461.354.876.665 1.22-.48.532-.78 1.229-.78 2 0 .104.02.203.031.305-1.067-.557-1.922-1.55-2.448-3.305zm10.385 3.305c.011-.102.031-.201.031-.305 0-.771-.301-1.468-.78-2 .311-.345.54-.76.665-1.22.345.139.72.22 1.115.22h1.416c-.526 1.755-1.381 2.748-2.447 3.305z"/><path d="m31.018 25.893.976-8.782c.042-.371-.128-.735-.439-.942l-5.763-3.842-4.468-9.829c-.413-.91-1.325-1.498-2.324-1.498s-1.911.588-2.324 1.496l-4.468 9.83-5.763 3.842c-.311.207-.48.571-.439.942l.976 8.782-2.931 8.791c-.043.131-.06.27-.047.407l1 11c.026.29.178.554.415.723l7 5c.169.122.373.187.581.187h4v.343c0 3.381-1.316 6.56-3.707 8.95-.286.286-.372.716-.217 1.09s.52.617.924.617h6c.379 0 .725-.214.895-.553l.1-.199c1.311-2.625 2.005-5.562 2.005-8.497v-1.751h2c.208 0 .412-.065.581-.187l7-5c.237-.169.389-.433.415-.723l1-11c.012-.138-.004-.276-.047-.407zm.027 19.56-6.365 4.547h-2.68c-.552 0-1 .447-1 1v2.751c0 2.494-.56 4.992-1.623 7.249h-3.203c1.835-2.497 2.826-5.501 2.826-8.657v-1.343c0-.553-.448-1-1-1h-4.68l-6.366-4.547-.94-10.335 2.934-8.802c.046-.138.061-.283.045-.427l-.933-8.396 5.494-3.662c.155-.104.278-.248.355-.418l4.587-10.091c.179-.393.827-.394 1.006.001l4.586 10.09c.077.17.2.314.355.418l5.494 3.662-.933 8.396c-.016.144-.001.289.045.427l2.934 8.802z"/><path d="m59 45h-1c0-7.166-3.988-18-10-18s-10 10.834-10 18h-1c-.552 0-1 .447-1 1 0 9.374 5.383 17 12 17s12-7.626 12-17c0-.553-.448-1-1-1zm-12-15.806v11.806h2v-11.806c3.726 1.283 7 9.39 7 15.806h-16c0-6.417 3.274-14.523 7-15.806zm1 31.806c-5.29 0-9.634-6.193-9.978-14h15.949c-.286 5.515-2.902 10-5.971 10v2c4.278 0 7.664-5.196 7.97-12h2.008c-.344 7.807-4.688 14-9.978 14z"/></svg>