<?xml version="1.0" encoding="iso-8859-1"?>
<!-- Generator: Adobe Illustrator 19.0.0, SVG Export Plug-In . SVG Version: 6.00 Build 0)  -->
<svg version="1.1" id="Capa_1" xmlns="http://www.w3.org/2000/svg" xmlns:xlink="http://www.w3.org/1999/xlink" x="0px" y="0px"
	 viewBox="0 0 512 512" style="enable-background:new 0 0 512 512;" xml:space="preserve">
<g>
	<g>
		<path d="M262.085,298.027c-3.592-2.755-8.584-2.755-12.176,0c-47.223,36.236-49.442,95.278-49.514,97.773
			c-0.156,5.521,4.192,10.124,9.712,10.282c5.516,0.152,10.124-4.189,10.282-9.71c0.014-0.489,1.736-46.583,35.606-77.387
			c33.671,30.672,35.597,76.919,35.613,77.409c0.166,5.413,4.606,9.692,9.989,9.692c0.098,0,0.194-0.001,0.292-0.004
			c5.521-0.158,9.868-4.761,9.71-10.282C311.528,393.304,309.308,334.263,262.085,298.027z"/>
	</g>
</g>
<g>
	<g>
		<path d="M261.46,137.634c-3.256-2.05-7.4-2.05-10.656,0c-43.221,27.213-45.273,72.169-45.34,74.069
			c-0.191,5.501,4.101,10.1,9.601,10.317c5.495,0.231,10.144-4.076,10.386-9.575c0.062-1.397,1.78-32.717,30.682-54.236
			c28.857,21.486,30.615,52.741,30.683,54.229c0.208,5.383,4.637,9.613,9.986,9.613c0.117,0,0.235-0.002,0.354-0.006
			c5.52-0.193,9.838-4.823,9.646-10.343C306.734,209.802,304.68,164.847,261.46,137.634z"/>
	</g>
</g>
<g>
	<g>
		<path d="M200.203,48.732c-3.793-4.013-10.122-4.192-14.136-0.397l-0.402,0.382c-3.998,3.81-4.151,10.14-0.342,14.138
			c1.967,2.063,4.603,3.102,7.243,3.102c2.478,0,4.96-0.916,6.896-2.76l0.344-0.328C203.82,59.075,203.997,52.746,200.203,48.732z"
			/>
	</g>
</g>
<g>
	<g>
		<path d="M212.448,282.403l-40.172-46.347c-2.037-2.351-5.052-3.624-8.157-3.432c-3.104,0.187-5.946,1.808-7.687,4.386
			c-18.21,26.966-23.852,62.802-24.082,64.315c-0.834,5.458,2.915,10.56,8.374,11.395c0.513,0.078,1.021,0.116,1.524,0.116
			c4.855,0,9.116-3.543,9.872-8.49c0.042-0.274,3.678-23.403,14.22-44.604l30.995,35.76c3.618,4.173,9.935,4.623,14.106,1.007
			C215.614,292.892,216.065,286.576,212.448,282.403z"/>
	</g>
</g>
<g>
	<g>
		<path d="M181.121,184.33l-29.214-33.705c-2.038-2.351-5.06-3.622-8.157-3.432c-3.105,0.187-5.946,1.808-7.687,4.386
			c-13.581,20.113-17.777,46.761-17.949,47.885c-0.835,5.455,2.908,10.549,8.362,11.389c0.516,0.08,1.027,0.118,1.534,0.118
			c4.847-0.002,9.105-3.536,9.873-8.474c0.027-0.179,2.243-14.064,8.338-27.898l19.787,22.83c3.618,4.173,9.935,4.623,14.106,1.007
			C184.287,194.819,184.738,188.503,181.121,184.33z"/>
	</g>
</g>
<g>
	<g>
		<path d="M393.883,199.462c-0.172-1.125-4.368-27.772-17.949-47.885c-1.74-2.578-4.581-4.199-7.687-4.386
			c-3.105-0.189-6.12,1.081-8.157,3.432l-29.214,33.705c-3.617,4.173-3.166,10.489,1.007,14.106
			c4.173,3.618,10.489,3.168,14.107-1.006l19.787-22.83c6.095,13.834,8.311,27.719,8.338,27.898c0.762,4.942,5.02,8.479,9.871,8.479
			c0.503,0,1.013-0.038,1.524-0.116C390.969,210.024,394.718,204.921,393.883,199.462z"/>
	</g>
</g>
<g>
	<g>
		<path d="M379.645,301.325c-0.23-1.513-5.872-37.349-24.082-64.315c-1.74-2.578-4.582-4.199-7.687-4.386
			c-3.113-0.19-6.12,1.082-8.157,3.432l-40.172,46.347c-3.616,4.173-3.164,10.489,1.008,14.106
			c4.174,3.616,10.487,3.167,14.106-1.007l30.991-35.755c10.485,21.125,14.172,44.272,14.225,44.607
			c0.759,4.944,5.018,8.483,9.871,8.483c0.503,0,1.013-0.038,1.524-0.116C376.731,311.886,380.48,306.784,379.645,301.325z"/>
	</g>
</g>
<g>
	<g>
		<path d="M461.556,310.034c-3.082-2.446-7.313-2.857-10.812-1.048c-0.022,0.012-0.045,0.023-0.068,0.035
			c7.709-20.079,16.327-54.046,16.327-105.578c0-3.965-2.343-7.556-5.973-9.153c-3.63-1.598-7.86-0.899-10.783,1.78
			c-4.786,4.385-9.664,8.719-14.407,12.851c0.896-30.222-2.876-86.761-35.895-140.961c-1.551-2.545-4.155-4.266-7.104-4.694
			c-2.949-0.428-5.936,0.482-8.145,2.481c-8.688,7.86-16.647,15.221-23.742,21.883c-13.786-18.637-47.687-58.947-100.319-86.49
			c-2.902-1.519-6.367-1.52-9.273,0c-11.399,5.965-22.668,12.95-33.494,20.76c-4.479,3.231-5.49,9.481-2.26,13.96
			c3.231,4.479,9.48,5.491,13.961,2.259c8.581-6.19,17.451-11.817,26.43-16.768c48.061,26.502,79.104,64.825,90.306,80.198
			c-13.562,13.044-21.473,21.117-21.608,21.255c-3.86,3.949-3.79,10.28,0.159,14.141c3.949,3.861,10.28,3.79,14.142-0.159
			c0.148-0.151,9.798-9.999,26.116-25.56c0.906-0.621,1.679-1.365,2.311-2.199c6.304-5.989,13.507-12.737,21.482-20.057
			c33.999,64.016,26.557,130.198,25.508,138.103c-8.333,6.878-13.946,11.314-14.066,11.408c-4.337,3.42-5.079,9.708-1.659,14.044
			c3.42,4.337,9.709,5.08,14.044,1.66c0.202-0.159,15.614-12.334,33.646-27.928c-3.745,66.437-23.051,93.444-23.445,93.983
			c-0.424,0.559-0.778,1.15-1.068,1.76c-26.7,10.789-53.282,19.013-53.648,19.126c-5.278,1.625-8.24,7.221-6.616,12.499
			c1.626,5.278,7.22,8.243,12.498,6.616c1.706-0.524,34.438-10.648,64.556-23.551c-6.089,14.882-14.371,28.515-24.752,40.709
			c-3.579,4.206-3.072,10.517,1.134,14.097c1.882,1.602,4.185,2.385,6.477,2.385c2.83,0,5.642-1.195,7.62-3.518
			c17.148-20.146,29.228-43.711,35.901-70.04C466.001,316.509,464.64,312.481,461.556,310.034z"/>
	</g>
</g>
<g>
	<g>
		<path d="M401.741,403.936c-3.312-4.419-9.58-5.315-13.999-2.001l-0.221,0.167c-4.384,3.358-5.187,9.613-1.828,13.998
			c1.964,2.564,4.937,3.906,7.943,3.906c2.134,0,4.285-0.676,6.105-2.07C404.159,414.623,405.054,408.354,401.741,403.936z"/>
	</g>
</g>
<g>
	<g>
		<path d="M366.718,427.292c-2.349-4.998-8.301-7.148-13.305-4.8c-7.818,3.672-15.964,6.91-24.21,9.623
			c-18.822,6.192-31.468,23.601-31.468,43.319V492h-83.473v-16.566c0-19.718-12.646-37.126-31.468-43.319
			c-31.808-10.465-85.263-36.273-109.455-95.425c30.119,12.905,62.854,23.029,64.561,23.553c5.279,1.625,10.875-1.339,12.498-6.617
			c1.624-5.279-1.338-10.875-6.617-12.499c-0.365-0.113-26.925-8.326-53.625-19.115c-0.294-0.612-0.655-1.204-1.086-1.764
			c-0.217-0.292-19.688-27.241-23.449-93.989c18.032,15.594,33.444,27.769,33.646,27.928c4.337,3.419,10.625,2.676,14.044-1.66
			c3.42-4.336,2.678-10.624-1.659-14.044c-0.12-0.095-5.735-4.531-14.069-11.411c-1.06-7.847-8.638-73.87,25.509-138.103
			c7.982,7.327,15.194,14.084,21.506,20.08c0.622,0.814,1.378,1.542,2.262,2.152c16.325,15.567,25.995,25.433,26.144,25.585
			c3.861,3.948,10.192,4.019,14.141,0.158c3.949-3.861,4.02-10.192,0.159-14.141c-0.136-0.138-8.052-8.217-21.622-21.268
			c2.361-3.255,5.602-7.528,9.688-12.477c3.516-4.259,2.914-10.562-1.346-14.078c-4.258-3.517-10.562-2.913-14.078,1.345
			c-3.556,4.307-6.509,8.129-8.88,11.324c-7.101-6.666-15.067-14.034-23.763-21.902c-2.208-1.999-5.193-2.908-8.145-2.481
			c-2.949,0.428-5.554,2.149-7.104,4.694c-33.019,54.201-36.791,110.739-35.895,140.961c-4.743-4.132-9.621-8.465-14.407-12.851
			c-2.923-2.679-7.154-3.378-10.783-1.78c-3.63,1.597-5.973,5.188-5.973,9.153c0,51.532,8.617,85.498,16.327,105.578
			c-0.022-0.012-0.045-0.023-0.068-0.035c-3.498-1.81-7.729-1.399-10.812,1.048c-3.084,2.447-4.445,6.475-3.478,10.291
			c21.216,83.685,90.293,117.863,129.581,130.787c10.598,3.487,17.718,13.26,17.718,24.321V502c0,5.523,4.478,10,10,10h103.473
			c5.522,0,10-4.477,10-10v-26.566c0-11.061,7.12-20.834,17.718-24.32c9.011-2.964,17.915-6.503,26.464-10.519
			C366.917,438.247,369.066,432.291,366.718,427.292z"/>
	</g>
</g>
<g>
</g>
<g>
</g>
<g>
</g>
<g>
</g>
<g>
</g>
<g>
</g>
<g>
</g>
<g>
</g>
<g>
</g>
<g>
</g>
<g>
</g>
<g>
</g>
<g>
</g>
<g>
</g>
<g>
</g>
</svg>
